<mxfile host="app.diagrams.net" modified="2021-11-15T00:03:03.504Z" agent="5.0 (Windows NT 10.0; Win64; x64) AppleWebKit/537.36 (KHTML, like Gecko) Chrome/95.0.4638.69 Safari/537.36" etag="k08AI6KtTT2bEdXqqEQ1" version="15.7.3" type="github">
  <diagram name="Page-1" id="e7e014a7-5840-1c2e-5031-d8a46d1fe8dd">
    <mxGraphModel dx="782" dy="468" grid="1" gridSize="10" guides="1" tooltips="1" connect="1" arrows="1" fold="1" page="1" pageScale="1" pageWidth="1169" pageHeight="826" background="none" math="0" shadow="0">
      <root>
        <mxCell id="0" />
        <mxCell id="1" parent="0" />
        <mxCell id="3qHSvaRZyuctoSHVrIAf-41" value="Formations" style="rounded=0;whiteSpace=wrap;html=1;" vertex="1" parent="1">
          <mxGeometry x="320" y="360" width="130" height="70" as="geometry" />
        </mxCell>
        <mxCell id="3qHSvaRZyuctoSHVrIAf-43" value="&lt;b style=&quot;font-size: 10px;&quot;&gt;nom&lt;br style=&quot;font-size: 10px;&quot;&gt;description&lt;br style=&quot;font-size: 10px;&quot;&gt;image&lt;br style=&quot;font-size: 10px;&quot;&gt;chapitres&lt;br style=&quot;font-size: 10px;&quot;&gt;prix&lt;br style=&quot;font-size: 10px;&quot;&gt;categorie&lt;/b&gt;" style="text;html=1;strokeColor=none;fillColor=none;align=center;verticalAlign=middle;whiteSpace=wrap;rounded=0;strokeWidth=1;fontSize=10;" vertex="1" parent="1">
          <mxGeometry x="450" y="355" width="60" height="80" as="geometry" />
        </mxCell>
        <mxCell id="3qHSvaRZyuctoSHVrIAf-48" value="" style="edgeStyle=orthogonalEdgeStyle;rounded=0;orthogonalLoop=1;jettySize=auto;html=1;fontSize=13;" edge="1" parent="1" source="3qHSvaRZyuctoSHVrIAf-46" target="3qHSvaRZyuctoSHVrIAf-47">
          <mxGeometry relative="1" as="geometry" />
        </mxCell>
        <mxCell id="3qHSvaRZyuctoSHVrIAf-56" style="edgeStyle=orthogonalEdgeStyle;rounded=0;orthogonalLoop=1;jettySize=auto;html=1;exitX=1;exitY=1;exitDx=0;exitDy=0;entryX=0;entryY=0.5;entryDx=0;entryDy=0;fontSize=13;" edge="1" parent="1" source="3qHSvaRZyuctoSHVrIAf-46" target="3qHSvaRZyuctoSHVrIAf-55">
          <mxGeometry relative="1" as="geometry" />
        </mxCell>
        <mxCell id="3qHSvaRZyuctoSHVrIAf-46" value="&lt;font style=&quot;font-size: 13px&quot;&gt;Users&lt;/font&gt;" style="rounded=0;whiteSpace=wrap;html=1;fontSize=10;strokeWidth=1;" vertex="1" parent="1">
          <mxGeometry x="330" y="80" width="120" height="60" as="geometry" />
        </mxCell>
        <mxCell id="3qHSvaRZyuctoSHVrIAf-49" value="" style="edgeStyle=orthogonalEdgeStyle;rounded=0;orthogonalLoop=1;jettySize=auto;html=1;fontSize=13;" edge="1" parent="1" source="3qHSvaRZyuctoSHVrIAf-47" target="3qHSvaRZyuctoSHVrIAf-41">
          <mxGeometry relative="1" as="geometry" />
        </mxCell>
        <mxCell id="3qHSvaRZyuctoSHVrIAf-47" value="crée" style="ellipse;whiteSpace=wrap;html=1;rounded=0;fontSize=10;strokeWidth=1;direction=south;" vertex="1" parent="1">
          <mxGeometry x="360" y="190" width="60" height="70" as="geometry" />
        </mxCell>
        <mxCell id="3qHSvaRZyuctoSHVrIAf-52" value="" style="edgeStyle=orthogonalEdgeStyle;rounded=0;orthogonalLoop=1;jettySize=auto;html=1;fontSize=13;entryX=0;entryY=0.5;entryDx=0;entryDy=0;exitX=0.167;exitY=1;exitDx=0;exitDy=0;exitPerimeter=0;" edge="1" parent="1" source="3qHSvaRZyuctoSHVrIAf-46" target="3qHSvaRZyuctoSHVrIAf-54">
          <mxGeometry relative="1" as="geometry">
            <mxPoint x="350" y="160" as="sourcePoint" />
            <mxPoint x="350" y="190" as="targetPoint" />
            <Array as="points">
              <mxPoint x="350" y="180" />
              <mxPoint x="330" y="180" />
            </Array>
          </mxGeometry>
        </mxCell>
        <mxCell id="3qHSvaRZyuctoSHVrIAf-58" style="edgeStyle=orthogonalEdgeStyle;rounded=0;orthogonalLoop=1;jettySize=auto;html=1;exitX=1;exitY=0.5;exitDx=0;exitDy=0;entryX=0.25;entryY=0;entryDx=0;entryDy=0;fontSize=13;" edge="1" parent="1" source="3qHSvaRZyuctoSHVrIAf-54" target="3qHSvaRZyuctoSHVrIAf-41">
          <mxGeometry relative="1" as="geometry" />
        </mxCell>
        <mxCell id="3qHSvaRZyuctoSHVrIAf-54" value="supprime" style="ellipse;whiteSpace=wrap;html=1;rounded=0;fontSize=10;strokeWidth=1;direction=south;" vertex="1" parent="1">
          <mxGeometry x="300" y="190" width="60" height="70" as="geometry" />
        </mxCell>
        <mxCell id="3qHSvaRZyuctoSHVrIAf-57" style="edgeStyle=orthogonalEdgeStyle;rounded=0;orthogonalLoop=1;jettySize=auto;html=1;exitX=1;exitY=0.5;exitDx=0;exitDy=0;entryX=0.828;entryY=-0.019;entryDx=0;entryDy=0;entryPerimeter=0;fontSize=13;" edge="1" parent="1" source="3qHSvaRZyuctoSHVrIAf-55" target="3qHSvaRZyuctoSHVrIAf-41">
          <mxGeometry relative="1" as="geometry" />
        </mxCell>
        <mxCell id="3qHSvaRZyuctoSHVrIAf-55" value="Modifie" style="ellipse;whiteSpace=wrap;html=1;rounded=0;fontSize=10;strokeWidth=1;direction=south;" vertex="1" parent="1">
          <mxGeometry x="420" y="190" width="60" height="70" as="geometry" />
        </mxCell>
        <mxCell id="3qHSvaRZyuctoSHVrIAf-61" value="" style="edgeStyle=orthogonalEdgeStyle;rounded=0;orthogonalLoop=1;jettySize=auto;html=1;fontSize=13;" edge="1" parent="1" source="3qHSvaRZyuctoSHVrIAf-59" target="3qHSvaRZyuctoSHVrIAf-60">
          <mxGeometry relative="1" as="geometry" />
        </mxCell>
        <mxCell id="3qHSvaRZyuctoSHVrIAf-63" style="edgeStyle=orthogonalEdgeStyle;rounded=0;orthogonalLoop=1;jettySize=auto;html=1;exitX=0.25;exitY=0;exitDx=0;exitDy=0;fontSize=13;" edge="1" parent="1" source="3qHSvaRZyuctoSHVrIAf-59">
          <mxGeometry relative="1" as="geometry">
            <mxPoint x="340" y="550" as="targetPoint" />
          </mxGeometry>
        </mxCell>
        <mxCell id="3qHSvaRZyuctoSHVrIAf-70" style="edgeStyle=orthogonalEdgeStyle;rounded=0;orthogonalLoop=1;jettySize=auto;html=1;exitX=1;exitY=0;exitDx=0;exitDy=0;entryX=1;entryY=0.5;entryDx=0;entryDy=0;fontSize=13;" edge="1" parent="1" source="3qHSvaRZyuctoSHVrIAf-59" target="3qHSvaRZyuctoSHVrIAf-68">
          <mxGeometry relative="1" as="geometry" />
        </mxCell>
        <mxCell id="3qHSvaRZyuctoSHVrIAf-59" value="Admin" style="rounded=0;whiteSpace=wrap;html=1;fontSize=13;strokeWidth=1;" vertex="1" parent="1">
          <mxGeometry x="330" y="590" width="120" height="60" as="geometry" />
        </mxCell>
        <mxCell id="3qHSvaRZyuctoSHVrIAf-62" style="edgeStyle=orthogonalEdgeStyle;rounded=0;orthogonalLoop=1;jettySize=auto;html=1;entryX=0.5;entryY=1;entryDx=0;entryDy=0;fontSize=13;" edge="1" parent="1" source="3qHSvaRZyuctoSHVrIAf-60" target="3qHSvaRZyuctoSHVrIAf-41">
          <mxGeometry relative="1" as="geometry" />
        </mxCell>
        <mxCell id="3qHSvaRZyuctoSHVrIAf-60" value="crée" style="ellipse;whiteSpace=wrap;html=1;rounded=0;fontSize=13;strokeWidth=1;direction=south;" vertex="1" parent="1">
          <mxGeometry x="360" y="490" width="60" height="60" as="geometry" />
        </mxCell>
        <mxCell id="3qHSvaRZyuctoSHVrIAf-65" value="" style="edgeStyle=orthogonalEdgeStyle;rounded=0;orthogonalLoop=1;jettySize=auto;html=1;fontSize=13;" edge="1" parent="1" source="3qHSvaRZyuctoSHVrIAf-64" target="3qHSvaRZyuctoSHVrIAf-41">
          <mxGeometry relative="1" as="geometry">
            <Array as="points">
              <mxPoint x="350" y="430" />
              <mxPoint x="350" y="430" />
            </Array>
          </mxGeometry>
        </mxCell>
        <mxCell id="3qHSvaRZyuctoSHVrIAf-64" value="supprime" style="ellipse;whiteSpace=wrap;html=1;rounded=0;fontSize=13;strokeWidth=1;direction=south;" vertex="1" parent="1">
          <mxGeometry x="300" y="490" width="60" height="60" as="geometry" />
        </mxCell>
        <mxCell id="3qHSvaRZyuctoSHVrIAf-67" style="edgeStyle=orthogonalEdgeStyle;rounded=0;orthogonalLoop=1;jettySize=auto;html=1;entryX=0.5;entryY=1;entryDx=0;entryDy=0;fontSize=13;" edge="1" parent="1">
          <mxGeometry relative="1" as="geometry">
            <mxPoint x="440" y="490" as="sourcePoint" />
            <mxPoint x="440" y="430" as="targetPoint" />
          </mxGeometry>
        </mxCell>
        <mxCell id="3qHSvaRZyuctoSHVrIAf-68" value="modifie" style="ellipse;whiteSpace=wrap;html=1;rounded=0;fontSize=13;strokeWidth=1;direction=south;" vertex="1" parent="1">
          <mxGeometry x="420" y="490" width="60" height="60" as="geometry" />
        </mxCell>
        <mxCell id="3qHSvaRZyuctoSHVrIAf-73" value="" style="edgeStyle=orthogonalEdgeStyle;rounded=0;orthogonalLoop=1;jettySize=auto;html=1;fontSize=13;" edge="1" parent="1" source="3qHSvaRZyuctoSHVrIAf-71" target="3qHSvaRZyuctoSHVrIAf-72">
          <mxGeometry relative="1" as="geometry" />
        </mxCell>
        <mxCell id="3qHSvaRZyuctoSHVrIAf-71" value="Visiteurs" style="rounded=0;whiteSpace=wrap;html=1;fontSize=13;strokeWidth=1;" vertex="1" parent="1">
          <mxGeometry x="60" y="370" width="90" height="60" as="geometry" />
        </mxCell>
        <mxCell id="3qHSvaRZyuctoSHVrIAf-74" value="" style="edgeStyle=orthogonalEdgeStyle;rounded=0;orthogonalLoop=1;jettySize=auto;html=1;fontSize=13;" edge="1" parent="1" source="3qHSvaRZyuctoSHVrIAf-72" target="3qHSvaRZyuctoSHVrIAf-41">
          <mxGeometry relative="1" as="geometry" />
        </mxCell>
        <mxCell id="3qHSvaRZyuctoSHVrIAf-72" value="navigue" style="ellipse;whiteSpace=wrap;html=1;rounded=0;fontSize=13;strokeWidth=1;" vertex="1" parent="1">
          <mxGeometry x="215" y="370" width="65" height="60" as="geometry" />
        </mxCell>
        <mxCell id="3qHSvaRZyuctoSHVrIAf-76" value="&lt;b style=&quot;font-size: 9px;&quot;&gt;id&lt;br style=&quot;font-size: 9px;&quot;&gt;email&lt;br style=&quot;font-size: 9px;&quot;&gt;username&lt;br style=&quot;font-size: 9px;&quot;&gt;password&lt;br style=&quot;font-size: 9px;&quot;&gt;created_at&lt;br style=&quot;font-size: 9px;&quot;&gt;updated_at&lt;br style=&quot;font-size: 9px;&quot;&gt;first name&lt;br style=&quot;font-size: 9px;&quot;&gt;last name&lt;br style=&quot;font-size: 9px;&quot;&gt;&lt;/b&gt;" style="text;html=1;strokeColor=none;fillColor=none;align=center;verticalAlign=middle;whiteSpace=wrap;rounded=0;strokeWidth=1;fontSize=9;" vertex="1" parent="1">
          <mxGeometry x="460" y="60" width="60" height="100" as="geometry" />
        </mxCell>
        <mxCell id="3qHSvaRZyuctoSHVrIAf-77" value="&lt;b style=&quot;font-size: 9px;&quot;&gt;id&lt;br style=&quot;font-size: 9px;&quot;&gt;email&lt;br style=&quot;font-size: 9px;&quot;&gt;username&lt;br style=&quot;font-size: 9px;&quot;&gt;password&lt;br style=&quot;font-size: 9px;&quot;&gt;created_at&lt;br style=&quot;font-size: 9px;&quot;&gt;updated_at&lt;br style=&quot;font-size: 9px;&quot;&gt;first name&lt;br style=&quot;font-size: 9px;&quot;&gt;last name&lt;br style=&quot;font-size: 9px;&quot;&gt;&lt;/b&gt;" style="text;html=1;strokeColor=none;fillColor=none;align=center;verticalAlign=middle;whiteSpace=wrap;rounded=0;strokeWidth=1;fontSize=9;" vertex="1" parent="1">
          <mxGeometry x="460" y="600" width="60" height="60" as="geometry" />
        </mxCell>
        <mxCell id="3qHSvaRZyuctoSHVrIAf-78" value="1:1" style="text;html=1;strokeColor=none;fillColor=none;align=center;verticalAlign=middle;whiteSpace=wrap;rounded=0;fontSize=9;" vertex="1" parent="1">
          <mxGeometry x="310" y="320" width="40" height="30" as="geometry" />
        </mxCell>
        <mxCell id="3qHSvaRZyuctoSHVrIAf-79" value="1:1" style="text;html=1;strokeColor=none;fillColor=none;align=center;verticalAlign=middle;whiteSpace=wrap;rounded=0;fontSize=9;" vertex="1" parent="1">
          <mxGeometry x="290" y="150" width="40" height="30" as="geometry" />
        </mxCell>
        <mxCell id="3qHSvaRZyuctoSHVrIAf-80" value="1:1" style="text;html=1;strokeColor=none;fillColor=none;align=center;verticalAlign=middle;whiteSpace=wrap;rounded=0;fontSize=9;" vertex="1" parent="1">
          <mxGeometry x="380" y="150" width="40" height="30" as="geometry" />
        </mxCell>
        <mxCell id="3qHSvaRZyuctoSHVrIAf-81" value="1:1" style="text;html=1;strokeColor=none;fillColor=none;align=center;verticalAlign=middle;whiteSpace=wrap;rounded=0;fontSize=9;" vertex="1" parent="1">
          <mxGeometry x="380" y="320" width="40" height="30" as="geometry" />
        </mxCell>
        <mxCell id="3qHSvaRZyuctoSHVrIAf-82" value="1:1" style="text;html=1;strokeColor=none;fillColor=none;align=center;verticalAlign=middle;whiteSpace=wrap;rounded=0;fontSize=9;" vertex="1" parent="1">
          <mxGeometry x="450" y="160" width="40" height="30" as="geometry" />
        </mxCell>
        <mxCell id="3qHSvaRZyuctoSHVrIAf-83" value="1:1" style="text;html=1;strokeColor=none;fillColor=none;align=center;verticalAlign=middle;whiteSpace=wrap;rounded=0;fontSize=9;" vertex="1" parent="1">
          <mxGeometry x="430" y="320" width="40" height="30" as="geometry" />
        </mxCell>
        <mxCell id="3qHSvaRZyuctoSHVrIAf-85" value="1:n" style="text;html=1;strokeColor=none;fillColor=none;align=center;verticalAlign=middle;whiteSpace=wrap;rounded=0;fontSize=9;" vertex="1" parent="1">
          <mxGeometry x="380" y="560" width="40" height="30" as="geometry" />
        </mxCell>
        <mxCell id="3qHSvaRZyuctoSHVrIAf-86" value="1:n" style="text;html=1;strokeColor=none;fillColor=none;align=center;verticalAlign=middle;whiteSpace=wrap;rounded=0;fontSize=9;" vertex="1" parent="1">
          <mxGeometry x="450" y="560" width="40" height="30" as="geometry" />
        </mxCell>
        <mxCell id="3qHSvaRZyuctoSHVrIAf-87" value="1:n" style="text;html=1;strokeColor=none;fillColor=none;align=center;verticalAlign=middle;whiteSpace=wrap;rounded=0;fontSize=9;" vertex="1" parent="1">
          <mxGeometry x="320" y="570" width="40" height="30" as="geometry" />
        </mxCell>
        <mxCell id="3qHSvaRZyuctoSHVrIAf-89" value="1:n" style="text;html=1;strokeColor=none;fillColor=none;align=center;verticalAlign=middle;whiteSpace=wrap;rounded=0;fontSize=9;" vertex="1" parent="1">
          <mxGeometry x="440" y="450" width="40" height="30" as="geometry" />
        </mxCell>
        <mxCell id="3qHSvaRZyuctoSHVrIAf-90" value="1:n" style="text;html=1;strokeColor=none;fillColor=none;align=center;verticalAlign=middle;whiteSpace=wrap;rounded=0;fontSize=9;" vertex="1" parent="1">
          <mxGeometry x="380" y="450" width="40" height="30" as="geometry" />
        </mxCell>
        <mxCell id="3qHSvaRZyuctoSHVrIAf-91" value="1:n" style="text;html=1;strokeColor=none;fillColor=none;align=center;verticalAlign=middle;whiteSpace=wrap;rounded=0;fontSize=9;" vertex="1" parent="1">
          <mxGeometry x="330" y="450" width="40" height="30" as="geometry" />
        </mxCell>
        <mxCell id="3qHSvaRZyuctoSHVrIAf-92" value="1:n" style="text;html=1;strokeColor=none;fillColor=none;align=center;verticalAlign=middle;whiteSpace=wrap;rounded=0;fontSize=9;" vertex="1" parent="1">
          <mxGeometry x="160" y="370" width="40" height="30" as="geometry" />
        </mxCell>
        <mxCell id="3qHSvaRZyuctoSHVrIAf-93" value="1:n" style="text;html=1;strokeColor=none;fillColor=none;align=center;verticalAlign=middle;whiteSpace=wrap;rounded=0;fontSize=9;" vertex="1" parent="1">
          <mxGeometry x="270" y="370" width="40" height="30" as="geometry" />
        </mxCell>
      </root>
    </mxGraphModel>
  </diagram>
</mxfile>
